<?xml version="1.0" ?><!DOCTYPE svg  PUBLIC '-//W3C//DTD SVG 1.1//EN'  'http://www.w3.org/Graphics/SVG/1.1/DTD/svg11.dtd'><svg enable-background="new 0 0 512 512" height="512px" id="Layer_1" version="1.1" viewBox="0 0 512 512" width="512px" xml:space="preserve" xmlns="http://www.w3.org/2000/svg" xmlns:xlink="http://www.w3.org/1999/xlink"><path d="M123.314,387.197h265.372c38.182,0,69.315-33.195,70.543-74.484h-23.131  c-1.205,27.432-21.947,49.281-47.412,49.281H123.314c-25.471,0-46.207-21.85-47.412-49.281h-23.13  C53.999,354.002,85.132,387.197,123.314,387.197z" fill="#010101"/><path d="M123.314,150.007h265.372c25.465,0,46.207,21.849,47.412,49.28h23.131  c-1.228-41.288-32.361-74.485-70.543-74.485H123.314c-38.182,0-69.315,33.197-70.542,74.485h23.13  C77.107,171.856,97.843,150.007,123.314,150.007z" fill="#010101"/><path d="M209.158,258.623c0,27.083,21.958,49.029,49.042,49.029c27.083,0,49.041-21.946,49.041-49.029  c0-27.095-21.958-49.042-49.041-49.042C231.115,209.582,209.158,231.528,209.158,258.623z" fill="#010101"/></svg>